<?xml version="1.0" encoding="utf-8"?>
<!-- Generator: Adobe Illustrator 23.0.3, SVG Export Plug-In . SVG Version: 6.00 Build 0)  -->
<svg version="1.1" id="Layer_1" xmlns="http://www.w3.org/2000/svg" xmlns:xlink="http://www.w3.org/1999/xlink" x="0px" y="0px"
	 viewBox="0 0 1200 1200" enable-background="new 0 0 1200 1200" xml:space="preserve">
<g>
	<path fill="#8FCAD8" d="M240.36,606.048c-45.916-5.942-101.99,6.879-142.974-20.219c-36.412-24.075-45.697-76.06-32.042-117.52
		c7.602-23.081,21.212-45.27,19.9-69.535c-1.652-30.561-26.457-55.067-33.352-84.885c-7.959-34.417,10.062-71.026,37.504-93.27
		c49.731-40.309,125.91-46.779,186.595-58.991c74.683-15.028,149.97-27.048,225.62-36.018c39.909-4.732,84.427-7.4,116.017,17.443
		c16.259,12.787,27.913,32.178,47.229,39.577c17.231,6.599,36.482,2.044,54.39-2.401c97.69-24.251,201.26-43.312,297.976-15.43
		c18.477,5.327,38.019,13.641,46.933,30.679c20.315,38.831-5.603,88.748,21.212,129.172c16.729,25.218,52.338,36.064,62.099,64.709
		c5.958,17.486,0.266,36.566-5.415,54.144c-4.772,14.765-9.544,29.53-14.316,44.295c-5.356,16.571-11.113,33.813-23.453,46.101
		c-19.042,18.962-48.504,21.424-75.343,22.78c-61.557,3.109-117.235,19.673-177.697,30.948
		c-63.338,11.811-127.216,18.615-191.482,22.631c-86.241,4.621-173.339,2.123-259.945-0.38
		C346.654,608.341,293.292,612.898,240.36,606.048z"/>
	<path fill="#D7F1F7" d="M721.037,308.804c15.582-2.284,31.431,3.495,44.538,12.226c4.63-9.088,10.525-19.181,20.52-21.213
		c4.252-0.864,8.649-0.078,12.895,0.814c8.685,1.825,17.276,4.097,25.727,6.804c2.63,0.843,5.281,1.744,7.584,3.27
		c7.298,4.837,9.337,14.463,10.764,23.101c14.444-3.808,29.458-5.449,44.383-4.853c5.344,15.23,12.045,29.984,19.996,44.029
		c-11.481,4.363-21.919,11.441-30.222,20.491c-2.621,2.857-5.191,6.022-8.807,7.423c-9.993,3.872-19.275-7.521-29.841-9.314
		c-15.661-2.657-27.693,15.948-43.55,16.88c-14.283,0.839-25.36-12.684-39.302-15.897c-20.938-4.824-41.081,14.479-62.435,12.094
		c-11.775-1.315-21.995-9.255-28.829-18.934c-6.834-9.679-10.793-21.044-14.669-32.241c-0.806-2.33-1.624-4.734-1.477-7.195
		c0.268-4.483,3.79-8.269,7.902-10.075c4.112-1.806,8.739-1.979,13.229-1.91c7.72,0.119,15.617,0.714,23.17,2.343
		c-1.32,0.433-2.069,0.323-3.352,0.334C689.662,322.013,707.787,310.728,721.037,308.804z M217.233,247.071
		c1.283-0.011,2.032,0.099,3.352-0.334c-7.552-1.629-15.45-2.224-23.17-2.343c-4.491-0.069-9.117,0.104-13.229,1.91
		c-4.112,1.806-7.634,5.592-7.902,10.075c-0.147,2.461,0.67,4.866,1.477,7.195c3.875,11.197,7.835,22.562,14.668,32.241
		c6.834,9.679,17.054,17.619,28.829,18.934c21.354,2.385,41.497-16.918,62.435-12.094c13.942,3.212,25.019,16.735,39.302,15.897
		c15.858-0.931,27.889-19.537,43.55-16.88c10.566,1.793,19.848,13.186,29.841,9.314c3.615-1.401,6.186-4.566,8.807-7.423
		c8.303-9.05,18.741-16.128,30.222-20.491c-7.952-14.046-14.652-28.8-19.996-44.029c-14.926-0.597-29.939,1.045-44.383,4.853
		c-1.427-8.638-3.466-18.264-10.764-23.101c-2.302-1.526-4.953-2.427-7.584-3.27c-8.452-2.707-17.042-4.979-25.727-6.804
		c-4.246-0.892-8.644-1.678-12.895-0.814c-9.995,2.031-15.89,12.125-20.52,21.213c-13.107-8.731-28.955-14.51-44.538-12.226
		C235.757,220.817,217.632,232.103,217.233,247.071z"/>
	<path fill="#69AA61" d="M145.979,547.886c22.971-84.87,61.929-164.116,120.451-187.705c45.626-18.391,97.499-0.159,143.117,34.59
		s86.218,84.99,126.31,134.726c52.702,65.378,105.405,130.757,158.107,196.135c-80.576,34.979-165.924,47.894-250.797,60.675
		c-103.854,15.639-207.718,31.209-311.562,46.918c-59.565,9.011-44.318-9.792-28.667-78.6
		C118.454,686.412,127.96,614.463,145.979,547.886z"/>
	<path fill="#75B76E" d="M389.655,536.789c34.181-75.005,83.435-142.681,144.561-156.506
		c47.656-10.778,96.563,12.986,137.051,51.106c135.205,127.299,210.87,336.697,224.727,522.133
		c-27.944-15.168-60.274-18.56-91.732-20.911c-172.056-12.858-347.995-3.084-513.763-52.585c-4.514-1.348-9.428-3.059-11.835-7.243
		c-1.911-3.323-1.774-7.451-1.508-11.311c3.576-51.993,23.057-93.365,42.024-140.236
		C343.736,660.556,362.842,595.627,389.655,536.789z"/>
	<path fill="#82C67B" d="M545.062,696.498c-2.951-10.87,17.681-35.985,22.781-45.519c30.918-57.798,56.877-120.466,89.841-176.163
		c42.022-71.002,98.238-132.951,160.472-139.74c48.52-5.293,94.575,24.065,130.722,66.798
		c142.403,168.349,138.318,412.047,147.79,619.229c0.856,18.724,1.669,37.667,0.982,56.408h-89.709
		c-50.103-27.607-100.391-55.786-143.137-93.696c-32.409-28.741-59.929-62.608-92.42-91.257
		c-48.427-42.699-106.494-72.645-162.016-105.637c-11.174-6.64-22.896-14.104-28.282-25.885c-3.333-7.291-3.852-15.477-5.801-23.238
		C571.83,720.068,548.556,709.37,545.062,696.498z"/>
	<path fill="#96D690" d="M50.582,1077.393c1.369-42.035,3.946-84.019,7.711-125.865c3.031-33.686,1.548-67.778,7.422-100.728
		c12.369-69.394,36.602-136.727,70.649-195.127c54.547-93.562,153.243-150.925,252.268-125.235
		c44.081,11.436,84.783,35.725,123.038,63.131c34.24,24.53,66.679,51.557,97.115,80.669c29.418,28.138,50.522,61.822,79.836,90.391
		c47.5,46.292,95.792,91.773,144.845,136.416c51.904,47.238,104.661,93.538,158.237,138.87
		c13.394,11.333,29.727,23.876,45.392,37.596h-780.87C187.794,1073.264,119.123,1075.321,50.582,1077.393z"/>
	<path fill="#B29F6B" d="M227.504,758.222c-11.771-22.863-15.597-53.685,2.161-74.23c18.197-21.052,40.893-37.941,65.351-51.213
		c34.977-18.98,74.315-32.193,113.029-41.033c18.421-4.206,37.246-7.215,56.133-6.704c18.888,0.51,37.922,4.672,54.32,14.057
		c-27.48,5.79-55.023,11.286-82.62,16.488c-22.408,4.224-44.629,11.007-65.291,21.053c-21.373,10.391-40.827,24.873-56.077,43.172
		c-9.562,11.438-17.864,24.903-21.101,40.377c-3.237,15.475-0.664,33.207,9.017,44.511c9.859,11.512,24.718,14.45,38.512,17.216
		c52.607,10.551,105.05,27.312,150.894,59.009c16.683,11.535,34.108,28.829,33.27,51.313c-0.959,25.727-26.009,48.048-18.359,72.226
		c2.023,6.394,6.142,11.564,10.311,16.366c21.321,24.558,46.473,44.266,68.082,68.485c7.698,8.628,14.995,18.062,21.326,28.196
		H482.102c-12.628-13.201-28.272-23.504-36.109-40.931c-16.113-35.83,8.85-80.283-0.119-119.324
		c-5.959-25.939-26.097-44.549-47.469-54.922c-21.372-10.372-44.611-14.311-66.76-22.198c-17.033-6.066-33.42-14.476-48.948-24.605
		C260.92,801.327,240.305,783.086,227.504,758.222z"/>
</g>
</svg>
